<svg width="16" height="16" viewBox="0 0 16 16" fill="none" xmlns="http://www.w3.org/2000/svg">
<g clip-path="url(#clip0_2335_1141)">
<path d="M13.0064 7.19032C12.5827 5.04102 10.6951 3.42749 8.42742 3.42749C6.62699 3.42749 5.0633 4.44918 4.28457 5.94435C2.40939 6.1437 0.951607 7.73231 0.951607 9.65733C0.951607 11.7194 2.62743 13.3952 4.68951 13.3952H12.7883C14.5077 13.3952 15.9032 11.9998 15.9032 10.2803C15.9032 8.63564 14.6261 7.30245 13.0064 7.19032ZM9.67339 9.03435V11.5263H7.18145V9.03435H5.3125L8.20937 6.13747C8.33397 6.01288 8.5271 6.01288 8.65169 6.13747L11.5423 9.03435H9.67339Z" fill="black" fill-opacity="0.54"/>
</g>
<defs>
<clipPath id="clip0_2335_1141">
<rect width="14.9516" height="14.9516" fill="white" transform="translate(0.951607 0.935547)"/>
</clipPath>
</defs>
</svg>
