<svg width="16" height="16" viewBox="0 0 16 16" fill="none" xmlns="http://www.w3.org/2000/svg">
<path d="M8.09087 2.1814C4.65199 2.1814 1.86102 4.97237 1.86102 8.41124C1.86102 11.8501 4.65199 14.6411 8.09087 14.6411C11.5297 14.6411 14.3207 11.8501 14.3207 8.41124C14.3207 4.97237 11.5297 2.1814 8.09087 2.1814ZM6.40258 11.0838L4.16607 8.84733C3.9231 8.60437 3.9231 8.21189 4.16607 7.96892C4.40903 7.72596 4.80151 7.72596 5.04447 7.96892L6.8449 9.76312L11.131 5.47698C11.374 5.23402 11.7665 5.23402 12.0094 5.47698C12.2524 5.71995 12.2524 6.11243 12.0094 6.35539L7.28099 11.0838C7.04425 11.3268 6.64554 11.3268 6.40258 11.0838Z" fill="black" fill-opacity="0.54"/>
</svg>
