<svg width="37" height="37" viewBox="0 0 37 37" fill="none" xmlns="http://www.w3.org/2000/svg">
<g filter="url(#filter0_d_2239_2518)">
<path d="M8.80522 18.0696L8.80522 17.5696L8.80522 18.0696ZM7.67833 14.9483L7.98587 15.3425H7.98587L7.67833 14.9483ZM29.3217 14.9483L29.0141 15.3425L29.3217 14.9483ZM28.1948 18.0696V18.5696V18.0696ZM19.6269 7.38529L19.9344 6.99106V6.99106L19.6269 7.38529ZM17.3731 7.38529L17.0656 6.99106V6.99106L17.3731 7.38529ZM18.5 23.2683V23.7683V23.2683ZM21.6625 26.3062H22.1625H21.6625ZM15.3375 26.3062L14.8375 26.3062V26.3062H15.3375ZM14.8375 30C14.8375 30.2761 15.0614 30.5 15.3375 30.5C15.6136 30.5 15.8375 30.2761 15.8375 30H14.8375ZM21.1625 30C21.1625 30.2761 21.3864 30.5 21.6625 30.5C21.9386 30.5 22.1625 30.2761 22.1625 30H21.1625ZM26.8281 17.886V28.2467H27.8281V17.886H26.8281ZM25.5265 29.5H11.8339V30.5H25.5265V29.5ZM10.5322 28.2467V17.886H9.5322V28.2467H10.5322ZM11.8339 29.5C11.1021 29.5 10.5322 28.9261 10.5322 28.2467H9.5322C9.5322 29.5039 10.5756 30.5 11.8339 30.5V29.5ZM26.8281 28.2467C26.8281 28.9261 26.2583 29.5 25.5265 29.5V30.5C26.7847 30.5 27.8281 29.5039 27.8281 28.2467H26.8281ZM19.3194 7.77952L29.0141 15.3425L29.6292 14.5541L19.9344 6.99106L19.3194 7.77952ZM28.1948 17.5696L8.80522 17.5696L8.80522 18.5696L28.1948 18.5696V17.5696ZM7.98587 15.3425L17.6806 7.77952L17.0656 6.99106L7.37078 14.5541L7.98587 15.3425ZM8.80522 17.5696C7.54747 17.5696 7.05739 16.0669 7.98587 15.3425L7.37078 14.5541C5.64306 15.9019 6.65864 18.5696 8.80522 18.5696L8.80522 17.5696ZM29.0141 15.3425C29.9426 16.0669 29.4525 17.5696 28.1948 17.5696V18.5696C30.3414 18.5696 31.3569 15.9019 29.6292 14.5541L29.0141 15.3425ZM19.9344 6.99106C19.0951 6.33631 17.9049 6.33631 17.0656 6.99106L17.6806 7.77952C18.1584 7.40683 18.8416 7.40683 19.3194 7.77952L19.9344 6.99106ZM18.5 23.7683C19.9896 23.7683 21.1625 24.9233 21.1625 26.3062H22.1625C22.1625 24.3335 20.5036 22.7683 18.5 22.7683V23.7683ZM15.8375 26.3062C15.8375 24.9233 17.0104 23.7683 18.5 23.7683V22.7683C16.4964 22.7683 14.8375 24.3335 14.8375 26.3062L15.8375 26.3062ZM15.8375 30V26.3062H14.8375V30H15.8375ZM21.1625 26.3062L21.1625 30H22.1625L22.1625 26.3062H21.1625Z" fill="black"/>
</g>
<defs>
<filter id="filter0_d_2239_2518" x="0.495697" y="0.5" width="36.0086" height="36" filterUnits="userSpaceOnUse" color-interpolation-filters="sRGB">
<feFlood flood-opacity="0" result="BackgroundImageFix"/>
<feColorMatrix in="SourceAlpha" type="matrix" values="0 0 0 0 0 0 0 0 0 0 0 0 0 0 0 0 0 0 127 0" result="hardAlpha"/>
<feOffset/>
<feGaussianBlur stdDeviation="3"/>
<feComposite in2="hardAlpha" operator="out"/>
<feColorMatrix type="matrix" values="0 0 0 0 0 0 0 0 0 0 0 0 0 0 0 0 0 0 0.25 0"/>
<feBlend mode="normal" in2="BackgroundImageFix" result="effect1_dropShadow_2239_2518"/>
<feBlend mode="normal" in="SourceGraphic" in2="effect1_dropShadow_2239_2518" result="shape"/>
</filter>
</defs>
</svg>
