<svg width="16" height="16" viewBox="0 0 16 16" fill="none" xmlns="http://www.w3.org/2000/svg">
<path d="M8.09087 2.1814C4.64576 2.1814 1.86102 4.96614 1.86102 8.41124C1.86102 11.8563 4.64576 14.6411 8.09087 14.6411C11.536 14.6411 14.3207 11.8563 14.3207 8.41124C14.3207 4.96614 11.536 2.1814 8.09087 2.1814ZM10.7697 11.0901C10.5267 11.333 10.1343 11.333 9.89129 11.0901L8.09087 9.28965L6.29044 11.0901C6.04748 11.333 5.655 11.333 5.41203 11.0901C5.16907 10.8471 5.16907 10.4546 5.41203 10.2117L7.21246 8.41124L5.41203 6.61082C5.16907 6.36785 5.16907 5.97537 5.41203 5.73241C5.655 5.48944 6.04748 5.48944 6.29044 5.73241L8.09087 7.53283L9.89129 5.73241C10.1343 5.48944 10.5267 5.48944 10.7697 5.73241C11.0127 5.97537 11.0127 6.36785 10.7697 6.61082L8.96927 8.41124L10.7697 10.2117C11.0064 10.4484 11.0064 10.8471 10.7697 11.0901Z" fill="black" fill-opacity="0.54"/>
</svg>
