<svg width="40" height="40" viewBox="0 0 40 40" fill="none" xmlns="http://www.w3.org/2000/svg">
<circle cx="20" cy="20" r="20" fill="#CAD6FF"/>
<path d="M18.03 8.57129V7.57129C17.4777 7.57129 17.03 8.019 17.03 8.57129H18.03ZM22.9224 8.57129H23.9224C23.9224 8.019 23.4746 7.57129 22.9224 7.57129V8.57129ZM22.9224 32.3808V33.3808C23.4746 33.3808 23.9224 32.9331 23.9224 32.3808H22.9224ZM18.03 32.3808H17.03C17.03 32.9331 17.4777 33.3808 18.03 33.3808V32.3808ZM32.3809 18.0299H33.3809C33.3809 17.4776 32.9332 17.0299 32.3809 17.0299L32.3809 18.0299ZM32.3809 22.9222V23.9222C32.6462 23.9222 32.9005 23.8169 33.088 23.6293C33.2756 23.4418 33.3809 23.1875 33.3809 22.9222H32.3809ZM8.57141 22.9222H7.57141C7.57141 23.4745 8.01913 23.9222 8.57141 23.9222L8.57141 22.9222ZM8.57141 18.0299L8.57141 17.0299C8.30619 17.0299 8.05184 17.1352 7.8643 17.3228C7.67677 17.5103 7.57141 17.7647 7.57141 18.0299H8.57141ZM27.1644 10.3284L27.8715 9.62129C27.4826 9.23236 26.8525 9.23054 26.4614 9.61724L27.1644 10.3284ZM30.6238 13.7878L31.335 14.4909C31.7217 14.0997 31.7199 13.4697 31.3309 13.0807L30.6238 13.7878ZM13.7879 30.6237L13.0808 31.3308C13.4699 31.7199 14.1003 31.7215 14.4914 31.3344L13.7879 30.6237ZM10.3285 27.1643L9.61779 26.4608C9.23069 26.8519 9.23231 27.4823 9.62142 27.8714L10.3285 27.1643ZM30.6238 27.1643L31.3309 27.8714C31.7163 27.486 31.7221 26.863 31.344 26.4705L30.6238 27.1643ZM27.1644 30.6237L26.4515 31.3249C26.6384 31.515 26.8936 31.6226 27.1603 31.6237C27.4269 31.6248 27.683 31.5194 27.8715 31.3308L27.1644 30.6237ZM10.3285 13.7878L9.62142 13.0807C9.43388 13.2683 9.32852 13.5226 9.32852 13.7878C9.32852 14.053 9.43388 14.3074 9.62142 14.4949L10.3285 13.7878ZM13.788 10.3284L14.4951 9.62129C14.1045 9.23077 13.4714 9.23077 13.0808 9.62129L13.788 10.3284ZM28.3668 22.9222V21.9222H27.6489L27.4193 22.6024L28.3668 22.9222ZM27.7942 24.2269L26.9173 23.7462L26.5638 24.391L27.074 24.9206L27.7942 24.2269ZM24.227 27.6372L24.9399 26.936L24.434 26.4217L23.7864 26.7395L24.227 27.6372ZM22.9224 28.143L22.6429 27.1828L21.9224 27.3926V28.143H22.9224ZM18.03 28.0405H19.03V27.3226L18.3498 27.093L18.03 28.0405ZM16.8884 27.5549L17.3491 26.6673L16.7026 26.3318L16.185 26.8442L16.8884 27.5549ZM13.3973 24.0638L14.108 24.7673L14.6204 24.2496L14.2849 23.6031L13.3973 24.0638ZM12.9117 22.9222L13.8592 22.6024L13.6296 21.9222L12.9117 21.9222L12.9117 22.9222ZM12.8093 18.0299V19.0299H13.5597L13.7694 18.3094L12.8093 18.0299ZM13.2989 16.7582L14.1986 17.1947L14.5093 16.5544L14.006 16.0511L13.2989 16.7582ZM16.656 13.1965L15.9489 13.9036L16.4846 14.4392L17.1452 14.0686L16.656 13.1965ZM18.03 12.5854L18.3498 13.5329L19.03 13.3033V12.5854H18.03ZM22.9224 12.483H21.9224V13.2334L22.6429 13.4431L22.9224 12.483ZM24.3901 13.071L23.9294 13.9586L24.5755 14.2939L25.0931 13.7822L24.3901 13.071ZM27.8812 16.5622L27.17 15.8591L26.6583 16.3768L26.9936 17.0228L27.8812 16.5622ZM28.4692 18.0299L27.5091 18.3094L27.7188 19.0299L28.4692 19.0299L28.4692 18.0299ZM18.03 9.57129H22.9224V7.57129H18.03V9.57129ZM22.9224 31.3808H18.03V33.3808H22.9224V31.3808ZM31.3809 18.0299V22.9222H33.3809V18.0299H31.3809ZM9.57141 22.9222V18.0299H7.57141V22.9222H9.57141ZM26.4573 11.0355L29.9167 14.4949L31.3309 13.0807L27.8715 9.62129L26.4573 11.0355ZM14.4951 29.9166L11.0356 26.4572L9.62142 27.8714L13.0808 31.3308L14.4951 29.9166ZM29.9167 26.4572L26.4573 29.9166L27.8715 31.3308L31.3309 27.8714L29.9167 26.4572ZM11.0356 14.4949L14.4951 11.0355L13.0808 9.62129L9.62142 13.0807L11.0356 14.4949ZM27.4193 22.6024C27.285 23.0004 27.1165 23.3828 26.9173 23.7462L28.6711 24.7076C28.9261 24.2423 29.142 23.7523 29.3143 23.242L27.4193 22.6024ZM23.7864 26.7395C23.4215 26.9186 23.0393 27.0674 22.6429 27.1828L23.2018 29.1031C23.7102 28.9552 24.2001 28.7644 24.6676 28.535L23.7864 26.7395ZM18.3498 27.093C18.0037 26.9762 17.6694 26.8336 17.3491 26.6673L16.4278 28.4425C16.838 28.6554 17.2664 28.8382 17.7102 28.988L18.3498 27.093ZM14.2849 23.6031C14.1187 23.2829 13.976 22.9485 13.8592 22.6024L11.9642 23.242C12.114 23.6858 12.2968 24.1143 12.5097 24.5244L14.2849 23.6031ZM13.7694 18.3094C13.8818 17.9234 14.0258 17.5509 14.1986 17.1947L12.3992 16.3217C12.1778 16.7779 11.9932 17.2555 11.8491 17.7504L13.7694 18.3094ZM17.1452 14.0686C17.5267 13.8547 17.9296 13.6748 18.3498 13.5329L17.7102 11.638C17.1714 11.8198 16.6552 12.0504 16.1668 12.3243L17.1452 14.0686ZM22.6429 13.4431C23.0914 13.5737 23.5218 13.747 23.9294 13.9586L24.8507 12.1834C24.3286 11.9125 23.777 11.6902 23.2018 11.5228L22.6429 13.4431ZM26.9936 17.0228C27.2052 17.4304 27.3785 17.8609 27.5091 18.3094L29.4294 17.7504C29.262 17.1752 29.0397 16.6236 28.7688 16.1015L26.9936 17.0228ZM19.03 12.5854V8.57129H17.03V12.5854H19.03ZM21.9224 8.57129V12.483H23.9224V8.57129H21.9224ZM13.0808 11.0355L15.9489 13.9036L17.3631 12.4894L14.4951 9.62129L13.0808 11.0355ZM14.006 16.0511L11.0356 13.0807L9.62142 14.4949L12.5918 17.4653L14.006 16.0511ZM25.0931 13.7822L27.8674 11.0396L26.4614 9.61724L23.687 12.3599L25.0931 13.7822ZM29.9127 13.0848L27.17 15.8591L28.5924 17.2652L31.335 14.4909L29.9127 13.0848ZM28.4692 19.0299H32.3809L32.3809 17.0299H28.4692L28.4692 19.0299ZM32.3809 21.9222L28.3668 21.9222V23.9222L32.3809 23.9222L32.3809 21.9222ZM27.074 24.9206L29.9036 27.858L31.344 26.4705L28.5144 23.5331L27.074 24.9206ZM27.8773 29.9225L24.9399 26.936L23.5141 28.3385L26.4515 31.3249L27.8773 29.9225ZM21.9224 28.143V32.3808H23.9224V28.143H21.9224ZM19.03 32.3808V28.0405H17.03V32.3808H19.03ZM16.185 26.8442L13.0845 29.913L14.4914 31.3344L17.5919 28.2657L16.185 26.8442ZM11.0393 27.8677L14.108 24.7673L12.6866 23.3603L9.61779 26.4608L11.0393 27.8677ZM12.9117 21.9222L8.57141 21.9222L8.57141 23.9222L12.9117 23.9222L12.9117 21.9222ZM8.57141 19.0299H12.8093V17.0299H8.57141L8.57141 19.0299ZM22.8746 19.953C23.1431 21.2948 22.2812 22.5478 20.9598 22.7758L21.3 24.7467C23.744 24.3249 25.3223 21.9922 24.8357 19.5605L22.8746 19.953ZM20.9598 22.7758C19.6175 23.0075 18.2904 22.0988 18.0179 20.7371L16.0568 21.1296C16.5395 23.5414 18.8769 25.1648 21.3 24.7467L20.9598 22.7758ZM18.0179 20.7371C17.7494 19.3954 18.6114 18.1423 19.9327 17.9143L19.5926 15.9434C17.1485 16.3652 15.5702 18.6979 16.0568 21.1296L18.0179 20.7371ZM19.9327 17.9143C21.275 17.6826 22.6021 18.5913 22.8746 19.953L24.8357 19.5605C24.3531 17.1487 22.0156 15.5253 19.5926 15.9434L19.9327 17.9143Z" fill="#2260FF"/>
</svg>
