<svg width="16" height="16" viewBox="0 0 16 16" fill="none" xmlns="http://www.w3.org/2000/svg">
<path d="M8.41132 2.11694C4.97244 2.11694 2.18147 4.90791 2.18147 8.34679C2.18147 11.7857 4.97244 14.5766 8.41132 14.5766C11.8502 14.5766 14.6412 11.7857 14.6412 8.34679C14.6412 4.90791 11.8502 2.11694 8.41132 2.11694ZM8.41132 8.96977C8.06868 8.96977 7.78833 8.68943 7.78833 8.34679V5.85485C7.78833 5.51221 8.06868 5.23187 8.41132 5.23187C8.75396 5.23187 9.0343 5.51221 9.0343 5.85485V8.34679C9.0343 8.68943 8.75396 8.96977 8.41132 8.96977ZM9.0343 11.4617H7.78833V10.2157H9.0343V11.4617Z" fill="black" fill-opacity="0.54"/>
</svg>
