<svg width="12" height="12" viewBox="0 0 12 12" fill="none" xmlns="http://www.w3.org/2000/svg">
<path d="M10.7183 3.08035L11.0726 3.43314L11.0889 3.41678L11.1036 3.39899L10.7183 3.08035ZM10.291 1.71012C10.4859 1.9058 10.8025 1.90648 10.9981 1.71163C11.1938 1.51679 11.1945 1.20021 10.9997 1.00453L10.291 1.71012ZM8.92853 1.28294L8.60827 0.898971L8.59052 0.913772L8.57422 0.930146L8.92853 1.28294ZM7.90415 1.60309C7.7093 1.79877 7.70998 2.11535 7.90566 2.31019C8.10134 2.50504 8.41792 2.50436 8.61277 2.30868L7.90415 1.60309ZM9.69389 3.40049C9.49904 3.59617 9.49972 3.91275 9.6954 4.10759C9.89108 4.30244 10.2077 4.30176 10.4025 4.10608L9.69389 3.40049ZM1.28119 3.08035L0.895874 3.39899L0.910588 3.41678L0.92688 3.43314L1.28119 3.08035ZM0.9998 1.00453C0.804955 1.20021 0.805632 1.51679 1.00131 1.71163C1.19699 1.90648 1.51357 1.9058 1.70842 1.71012L0.9998 1.00453ZM3.07092 1.28294L3.42523 0.930146L3.40893 0.913772L3.39118 0.898971L3.07092 1.28294ZM3.38669 2.30868C3.58153 2.50436 3.89811 2.50504 4.09379 2.31019C4.28947 2.11535 4.29015 1.79877 4.0953 1.60309L3.38669 2.30868ZM1.59695 4.10608C1.79179 4.30176 2.10838 4.30244 2.30406 4.10759C2.49973 3.91275 2.50041 3.59617 2.30557 3.40049L1.59695 4.10608ZM8.84273 11.2495C8.98036 11.4889 9.286 11.5714 9.5254 11.4337C9.7648 11.2961 9.84731 10.9905 9.70968 10.7511L8.84273 11.2495ZM2.36593 10.7511C2.2283 10.9905 2.3108 11.2961 2.55021 11.4337C2.78961 11.5714 3.09525 11.4889 3.23288 11.2495L2.36593 10.7511ZM6.07484 5.94048H5.57484V6.44048H6.07484V5.94048ZM6.57484 3.12095C6.57484 2.8448 6.35098 2.62095 6.07484 2.62095C5.79869 2.62095 5.57484 2.8448 5.57484 3.12095H6.57484ZM7.63457 6.44048C7.91071 6.44048 8.13457 6.21663 8.13457 5.94048C8.13457 5.66434 7.91071 5.44048 7.63457 5.44048V6.44048ZM10.2899 1.70897C10.2899 1.709 10.29 1.70908 10.2901 1.70916C10.2901 1.70919 10.2902 1.70924 10.2902 1.7093C10.2902 1.70931 10.2904 1.70953 10.2907 1.70979C10.2908 1.70987 10.2909 1.71002 10.2911 1.71021C10.2912 1.71031 10.2917 1.7108 10.2923 1.71142C10.2926 1.71163 10.2935 1.71252 10.2946 1.71366C10.2953 1.71435 10.2973 1.71629 10.2986 1.71754C10.3018 1.72057 10.3249 1.74092 10.3455 1.7572C11.0058 1.70161 11.0214 1.02798 11.0114 1.01677C11.009 1.01418 11.0055 1.01049 11.0044 1.00936C11.0028 1.00772 11.0015 1.00644 11.0014 1.00628C11.0006 1.00553 11.0001 1.00495 11 1.00486C10.9998 1.00465 10.9996 1.00449 10.9995 1.0044C10.9994 1.00423 10.9992 1.0041 10.9992 1.00404C10.9991 1.00393 10.999 1.00383 10.9989 1.0038C10.9989 1.00376 10.9989 1.00373 10.9988 1.00371C10.9988 1.00366 10.9988 1.00363 10.9987 1.00361C10.9987 1.00357 10.9987 1.00353 10.9986 1.0035C10.9986 1.00347 10.9986 1.00343 10.9985 1.00339C10.9985 1.00337 10.9985 1.00334 10.9984 1.0033C10.9984 1.00328 10.9984 1.00324 10.9983 1.0032C10.9983 1.00317 10.9982 1.00308 10.9981 1.00296C10.998 1.00291 10.9979 1.00277 10.9977 1.0026C10.9976 1.00252 10.9975 1.00235 10.9973 1.00215C10.9972 1.00206 10.9966 1.00148 10.9959 1.00075C10.9957 1.00059 10.9944 0.999321 10.9928 0.997735C10.9917 0.996645 10.988 0.993123 10.9854 0.990705C10.9742 0.980573 10.3005 0.992914 10.2418 1.65292C10.2579 1.67364 10.2781 1.69674 10.2811 1.69995C10.2824 1.70126 10.2843 1.70327 10.285 1.70398C10.2861 1.70515 10.287 1.70606 10.2872 1.70627C10.2878 1.70689 10.2883 1.70738 10.2884 1.70749C10.2886 1.70768 10.2888 1.70783 10.2888 1.70791C10.2891 1.70817 10.2893 1.70839 10.2893 1.7084C10.2894 1.70846 10.2894 1.70851 10.2895 1.70854C10.2895 1.70862 10.2896 1.7087 10.2896 1.70873L10.9988 1.00362C10.9987 1.0036 10.9988 1.00365 10.9988 1.00372C10.9989 1.00374 10.9989 1.00379 10.999 1.00385C10.999 1.00386 10.9992 1.00407 10.9995 1.00434C10.9995 1.00442 10.9997 1.00457 10.9999 1.00476C11 1.00486 11.0005 1.00535 11.0011 1.00598C11.0013 1.00619 11.0022 1.00709 11.0033 1.00826C11.004 1.00897 11.0059 1.01099 11.0072 1.01229C11.0102 1.01551 11.0304 1.0386 11.0465 1.05933C10.9878 1.71933 10.314 1.73167 10.3029 1.72154C10.3003 1.71912 10.2966 1.7156 10.2955 1.71451C10.2939 1.71292 10.2926 1.71166 10.2924 1.71149C10.2917 1.71076 10.2911 1.71018 10.291 1.71009C10.2908 1.70989 10.2906 1.70973 10.2906 1.70964C10.2904 1.70947 10.2903 1.70934 10.2902 1.70929C10.2901 1.70917 10.29 1.70908 10.29 1.70905C10.2899 1.70901 10.2899 1.70898 10.2899 1.70896C10.2898 1.70893 10.2898 1.7089 10.2898 1.70889C10.2898 1.70887 10.2898 1.70886 10.2898 1.70885C10.2898 1.70885 10.2898 1.70883 10.2897 1.70881C10.2897 1.7088 10.2897 1.70877 10.2897 1.70874C10.2896 1.70872 10.2896 1.70869 10.2896 1.70865C10.2895 1.70862 10.2895 1.70853 10.2893 1.70841C10.2893 1.70836 10.2892 1.70823 10.289 1.70806C10.2889 1.70797 10.2887 1.70781 10.2885 1.7076C10.2884 1.70751 10.2879 1.70693 10.2871 1.70619C10.287 1.70602 10.2857 1.70474 10.2841 1.7031C10.2831 1.70197 10.2796 1.69828 10.2772 1.6957C10.2671 1.68448 10.2827 1.01085 10.943 0.955267C10.9637 0.971542 10.9867 0.991887 10.9899 0.99492C10.9912 0.996171 10.9932 0.998116 10.9939 0.998806C10.9951 0.999942 10.996 1.00084 10.9962 1.00104C10.9968 1.00166 10.9973 1.00215 10.9974 1.00225C10.9976 1.00244 10.9977 1.00259 10.9978 1.00267C10.9981 1.00293 10.9983 1.00314 10.9983 1.00315C10.9983 1.00321 10.9984 1.00326 10.9984 1.00328C10.9985 1.00335 10.9985 1.0034 10.9985 1.00338L10.2899 1.70897ZM10.2896 1.70873C10.5662 1.9869 10.5577 2.48993 10.3329 2.7617L11.1036 3.39899C11.6239 2.76985 11.6731 1.68178 10.9988 1.00362L10.2896 1.70873ZM10.9997 1.00453C10.9996 1.00443 10.9994 1.00427 10.9991 1.00397C10.9989 1.0038 10.9985 1.00339 10.9983 1.00313L10.2901 1.70922C10.2901 1.70915 10.2901 1.70923 10.2904 1.70953C10.2906 1.70971 10.2909 1.71002 10.291 1.71012L10.9997 1.00453ZM10.9983 1.00313C10.3213 0.324204 9.23548 0.375836 8.60827 0.898971L9.24879 1.66692C9.51865 1.44183 10.0149 1.43314 10.2901 1.70922L10.9983 1.00313ZM8.57422 0.930146L7.90415 1.60309L8.61277 2.30868L9.28284 1.63574L8.57422 0.930146ZM10.364 2.72755L9.69389 3.40049L10.4025 4.10608L11.0726 3.43314L10.364 2.72755ZM1.00094 1.00338C1.00092 1.0034 1.00097 1.00335 1.00104 1.00328C1.00106 1.00326 1.00111 1.00321 1.00117 1.00315C1.00118 1.00314 1.00139 1.00293 1.00165 1.00267C1.00173 1.00259 1.00188 1.00244 1.00207 1.00225C1.00217 1.00215 1.00266 1.00166 1.00328 1.00104C1.00349 1.00084 1.0044 0.999942 1.00556 0.998806C1.00626 0.998115 1.00827 0.996171 1.00957 0.99492C1.01277 0.991887 1.0358 0.971542 1.05649 0.955267C1.71674 1.01086 1.73236 1.68448 1.7223 1.6957C1.71989 1.69828 1.71639 1.70197 1.71531 1.7031C1.71373 1.70474 1.71247 1.70602 1.71231 1.70619C1.71158 1.70693 1.71101 1.70751 1.71092 1.7076C1.71071 1.70781 1.71055 1.70797 1.71047 1.70806C1.7103 1.70823 1.71016 1.70836 1.71011 1.70841C1.71 1.70853 1.70991 1.70862 1.70988 1.70865C1.70984 1.70869 1.70981 1.70872 1.70979 1.70874C1.70976 1.70877 1.70973 1.7088 1.70972 1.70881C1.7097 1.70883 1.70969 1.70885 1.70968 1.70885C1.70968 1.70886 1.70966 1.70887 1.70964 1.70889C1.70963 1.7089 1.7096 1.70893 1.70957 1.70896C1.70955 1.70898 1.70952 1.70901 1.70948 1.70905C1.70945 1.70908 1.70936 1.70917 1.70925 1.70929C1.7092 1.70934 1.70906 1.70947 1.70889 1.70964C1.70881 1.70973 1.70864 1.70989 1.70844 1.71009C1.70835 1.71018 1.70777 1.71076 1.70703 1.71149C1.70687 1.71166 1.70559 1.71292 1.70396 1.71451C1.70284 1.7156 1.69915 1.71912 1.69658 1.72154C1.6854 1.73167 1.01168 1.71933 0.952922 1.05933C0.969069 1.0386 0.98927 1.01551 0.992285 1.01229C0.993529 1.01099 0.995463 1.00897 0.996149 1.00826C0.997279 1.00709 0.99817 1.00619 0.998376 1.00598C0.998992 1.00535 0.999476 1.00486 0.999577 1.00476C0.999763 1.00457 0.999912 1.00442 0.999991 1.00434C1.00025 1.00407 1.00046 1.00386 1.00047 1.00385C1.00053 1.00379 1.00058 1.00374 1.0006 1.00372C1.00067 1.00365 1.00072 1.0036 1.0007 1.00362L1.7098 1.70873C1.70983 1.7087 1.70991 1.70862 1.70999 1.70854C1.71002 1.70851 1.71007 1.70846 1.71013 1.7084C1.71014 1.70839 1.71035 1.70817 1.71062 1.70791C1.7107 1.70783 1.71085 1.70768 1.71103 1.70749C1.71113 1.70738 1.71162 1.70689 1.71223 1.70627C1.71244 1.70606 1.71333 1.70515 1.71446 1.70398C1.71515 1.70327 1.71708 1.70126 1.71833 1.69995C1.72134 1.69674 1.74154 1.67365 1.75769 1.65292C1.69893 0.992914 1.02521 0.980573 1.01403 0.990705C1.01146 0.993123 1.00777 0.996645 1.00665 0.997735C1.00502 0.999321 1.00374 1.00059 1.00358 1.00075C1.00284 1.00148 1.00226 1.00206 1.00217 1.00215C1.00197 1.00235 1.0018 1.00252 1.00172 1.0026C1.00155 1.00277 1.00141 1.00291 1.00136 1.00296C1.00124 1.00308 1.00115 1.00317 1.00112 1.0032C1.00108 1.00324 1.00105 1.00328 1.00102 1.0033C1.00098 1.00334 1.00095 1.00337 1.00093 1.00339C1.00089 1.00343 1.00085 1.00347 1.00082 1.0035C1.00079 1.00353 1.00075 1.00357 1.00071 1.00361C1.00069 1.00363 1.00066 1.00366 1.00062 1.00371C1.0006 1.00373 1.00056 1.00376 1.00052 1.0038C1.00049 1.00383 1.0004 1.00393 1.00028 1.00404C1.00023 1.0041 1.00009 1.00423 0.999924 1.0044C0.999841 1.00449 0.999678 1.00465 0.999473 1.00486C0.999384 1.00495 0.998808 1.00553 0.99808 1.00628C0.99792 1.00644 0.996661 1.00772 0.995084 1.00936C0.994 1.01049 0.990498 1.01418 0.988094 1.01677C0.97803 1.02798 0.99365 1.70161 1.65391 1.7572C1.67459 1.74092 1.69762 1.72057 1.70082 1.71754C1.70212 1.71629 1.70413 1.71435 1.70483 1.71366C1.706 1.71252 1.7069 1.71163 1.70711 1.71142C1.70773 1.7108 1.70822 1.71031 1.70832 1.71021C1.70851 1.71002 1.70866 1.70987 1.70874 1.70979C1.709 1.70953 1.70922 1.70931 1.70923 1.7093C1.70929 1.70924 1.70934 1.70919 1.70937 1.70916C1.70946 1.70908 1.70953 1.709 1.70956 1.70897L1.00094 1.00338ZM1.0007 1.00362C0.326362 1.68178 0.375597 2.76985 0.895874 3.39899L1.6665 2.7617C1.44175 2.48993 1.4332 1.9869 1.7098 1.70873L1.0007 1.00362ZM1.70842 1.71012C1.70852 1.71001 1.70883 1.7097 1.70902 1.70952C1.70932 1.70921 1.70939 1.70914 1.70931 1.70922L1.00119 1.00313C1.00092 1.0034 1.00051 1.00381 1.00034 1.00398C1.00005 1.00427 0.999881 1.00444 0.9998 1.00453L1.70842 1.71012ZM1.70932 1.70922C1.9846 1.43314 2.4808 1.44183 2.75067 1.66692L3.39118 0.898971C2.76397 0.375836 1.67815 0.324204 1.00119 1.00313L1.70932 1.70922ZM2.71662 1.63574L3.38669 2.30868L4.0953 1.60309L3.42523 0.930146L2.71662 1.63574ZM0.92688 3.43314L1.59695 4.10608L2.30557 3.40049L1.6355 2.72755L0.92688 3.43314ZM7.82498 9.47914L8.84273 11.2495L9.70968 10.7511L8.69193 8.98074L7.82498 9.47914ZM3.38368 8.98074L2.36593 10.7511L3.23288 11.2495L4.25063 9.47914L3.38368 8.98074ZM6.57484 5.94048V3.12095H5.57484V5.94048H6.57484ZM6.07484 6.44048H7.63457V5.44048H6.07484V6.44048ZM9.94208 5.70552C9.94208 7.81043 8.24356 9.51315 6.15282 9.51315V10.5131C8.79987 10.5131 10.9421 8.35868 10.9421 5.70552H9.94208ZM6.15282 9.51315C4.06209 9.51315 2.36357 7.81043 2.36357 5.70552H1.36357C1.36357 8.35868 3.50578 10.5131 6.15282 10.5131V9.51315ZM2.36357 5.70552C2.36357 3.60061 4.06209 1.89789 6.15282 1.89789V0.897895C3.50578 0.897895 1.36357 3.05236 1.36357 5.70552H2.36357ZM6.15282 1.89789C8.24356 1.89789 9.94208 3.60061 9.94208 5.70552H10.9421C10.9421 3.05236 8.79987 0.897895 6.15282 0.897895V1.89789Z" fill="#2260FF"/>
</svg>
