<svg width="16" height="16" viewBox="0 0 16 16" fill="none" xmlns="http://www.w3.org/2000/svg">
<path d="M12.0054 4.00071C11.7625 3.75774 11.37 3.75774 11.127 4.00071L8.08063 7.04087L5.03423 3.99448C4.79127 3.75151 4.39879 3.75151 4.15583 3.99448C3.91286 4.23744 3.91286 4.62992 4.15583 4.87289L7.20222 7.91928L4.15583 10.9657C3.91286 11.2086 3.91286 11.6011 4.15583 11.8441C4.39879 12.087 4.79127 12.087 5.03423 11.8441L8.08063 8.79769L11.127 11.8441C11.37 12.087 11.7625 12.087 12.0054 11.8441C12.2484 11.6011 12.2484 11.2086 12.0054 10.9657L8.95903 7.91928L12.0054 4.87289C12.2422 4.63615 12.2422 4.23744 12.0054 4.00071V4.00071Z" fill="black" fill-opacity="0.2"/>
</svg>
