<svg width="40" height="40" viewBox="0 0 40 40" fill="none" xmlns="http://www.w3.org/2000/svg">
<circle cx="20" cy="20" r="20" fill="#CAD6FF"/>
<path d="M19.8492 20.825C19.2969 20.825 18.8492 20.3772 18.8492 19.825C18.8492 19.2727 19.2969 18.825 19.8492 18.825V20.825ZM32.5476 19.825L33.1736 19.0451C33.41 19.2349 33.5476 19.5217 33.5476 19.825C33.5476 20.1282 33.41 20.415 33.1736 20.6048L32.5476 19.825ZM28.1053 17.5418C27.6746 17.1961 27.6057 16.5667 27.9514 16.136C28.2971 15.7052 28.9265 15.6363 29.3572 15.982L28.1053 17.5418ZM29.3572 23.6679C28.9265 24.0136 28.2971 23.9447 27.9514 23.514C27.6057 23.0832 27.6746 22.4538 28.1053 22.1081L29.3572 23.6679ZM25.035 28.1016V27.1016V28.1016ZM25.9031 27.2381L26.9031 27.2381V27.2381L25.9031 27.2381ZM13.5 27.2381L14.5 27.2381V27.2381L13.5 27.2381ZM14.3681 12V11V12ZM13.5 12.8635L12.5 12.8635V12.8635H13.5ZM25.035 12V13V12ZM25.9031 12.8635H26.9031H25.9031ZM24.9031 23.5959C24.9031 23.0436 25.3508 22.5959 25.9031 22.5959C26.4554 22.5959 26.9031 23.0436 26.9031 23.5959L24.9031 23.5959ZM26.9031 16.3758C26.9031 16.9281 26.4554 17.3758 25.9031 17.3758C25.3508 17.3758 24.9031 16.9281 24.9031 16.3758H26.9031ZM19.8492 18.825H32.5476V20.825H19.8492V18.825ZM31.9217 20.6048L28.1053 17.5418L29.3572 15.982L33.1736 19.0451L31.9217 20.6048ZM33.1736 20.6048L29.3572 23.6679L28.1053 22.1081L31.9217 19.0451L33.1736 20.6048ZM25.035 27.1016C24.9672 27.1016 24.9031 27.1576 24.9031 27.2381L26.9031 27.2381C26.9031 28.2723 26.0617 29.1016 25.035 29.1016V27.1016ZM14.3681 27.1016L25.035 27.1016V29.1016L14.3681 29.1016L14.3681 27.1016ZM14.5 27.2381C14.5 27.1576 14.4359 27.1016 14.3681 27.1016L14.3681 29.1016C13.3414 29.1016 12.5 28.2723 12.5 27.2381L14.5 27.2381ZM14.3681 13C14.4359 13 14.5 12.9439 14.5 12.8635H12.5C12.5 11.8293 13.3414 11 14.3681 11L14.3681 13ZM25.035 13H14.3681V11H25.035V13ZM24.9031 12.8635C24.9031 12.9439 24.9672 13 25.035 13V11C26.0617 11 26.9031 11.8293 26.9031 12.8635H24.9031ZM14.5 12.8635L14.5 27.2381L12.5 27.2381L12.5 12.8635L14.5 12.8635ZM24.9031 27.2381L24.9031 23.5959L26.9031 23.5959L26.9031 27.2381L24.9031 27.2381ZM24.9031 16.3758V12.8635H26.9031V16.3758H24.9031Z" fill="#2260FF"/>
</svg>
