<svg width="11" height="12" viewBox="0 0 11 12" fill="none" xmlns="http://www.w3.org/2000/svg">
<path d="M9.39204 1.95588V1.45588V1.95588ZM10 2.51514H9.5V2.51514L10 2.51514ZM1 2.51514H0.5H1ZM1.60796 1.95588L1.60796 2.45588L1.60796 1.95588ZM9.39204 10.99V10.49V10.99ZM10 10.4307H10.5V10.4307L10 10.4307ZM3.10704 9.61041H3.60704H3.10704ZM2.49839 9.05115L2.49839 9.55115H2.49891L2.49839 9.05115ZM1.2341 9.26897L0.894862 9.63628H0.894862L1.2341 9.26897ZM3.86975 10.99V11.49V10.99ZM2.55321 10.4852L2.21479 10.8533L2.55321 10.4852ZM1.30508 4.32353C1.02894 4.32353 0.805085 4.54739 0.805085 4.82353C0.805085 5.09967 1.02894 5.32353 1.30508 5.32353V4.32353ZM9.92373 5.32353C10.1999 5.32353 10.4237 5.09967 10.4237 4.82353C10.4237 4.54739 10.1999 4.32353 9.92373 4.32353V5.32353ZM3.28874 3.11467C3.28874 3.39081 3.5126 3.61467 3.78874 3.61467C4.06488 3.61467 4.28874 3.39081 4.28874 3.11467H3.28874ZM4.28874 1C4.28874 0.723858 4.06488 0.5 3.78874 0.5C3.5126 0.5 3.28874 0.723858 3.28874 1H4.28874ZM6.94976 3.11467C6.94976 3.39081 7.17361 3.61467 7.44976 3.61467C7.7259 3.61467 7.94976 3.39081 7.94976 3.11467H6.94976ZM7.94976 1C7.94976 0.723858 7.7259 0.5 7.44976 0.5C7.17361 0.5 6.94976 0.723858 6.94976 1H7.94976ZM3.74576 6.23529C3.46962 6.23529 3.24576 6.45915 3.24576 6.73529C3.24576 7.01144 3.46962 7.23529 3.74576 7.23529V6.23529ZM3.82203 7.23529C4.09818 7.23529 4.32203 7.01144 4.32203 6.73529C4.32203 6.45915 4.09818 6.23529 3.82203 6.23529V7.23529ZM3.74576 7.85294C3.46962 7.85294 3.24576 8.0768 3.24576 8.35294C3.24576 8.62908 3.46962 8.85294 3.74576 8.85294V7.85294ZM3.82203 8.85294C4.09818 8.85294 4.32203 8.62908 4.32203 8.35294C4.32203 8.0768 4.09818 7.85294 3.82203 7.85294V8.85294ZM5.57627 6.23529C5.30013 6.23529 5.07627 6.45915 5.07627 6.73529C5.07627 7.01144 5.30013 7.23529 5.57627 7.23529V6.23529ZM5.65254 7.23529C5.92868 7.23529 6.15254 7.01144 6.15254 6.73529C6.15254 6.45915 5.92868 6.23529 5.65254 6.23529V7.23529ZM5.57627 7.85294C5.30013 7.85294 5.07627 8.0768 5.07627 8.35294C5.07627 8.62908 5.30013 8.85294 5.57627 8.85294V7.85294ZM5.65254 8.85294C5.92868 8.85294 6.15254 8.62908 6.15254 8.35294C6.15254 8.0768 5.92868 7.85294 5.65254 7.85294V8.85294ZM7.40678 6.23529C7.13064 6.23529 6.90678 6.45915 6.90678 6.73529C6.90678 7.01144 7.13064 7.23529 7.40678 7.23529V6.23529ZM7.48305 7.23529C7.75919 7.23529 7.98305 7.01144 7.98305 6.73529C7.98305 6.45915 7.75919 6.23529 7.48305 6.23529V7.23529ZM7.40678 7.85294C7.13064 7.85294 6.90678 8.0768 6.90678 8.35294C6.90678 8.62908 7.13064 8.85294 7.40678 8.85294V7.85294ZM7.48305 8.85294C7.75919 8.85294 7.98305 8.62908 7.98305 8.35294C7.98305 8.0768 7.75919 7.85294 7.48305 7.85294V8.85294ZM9.39204 10.49H3.86975V11.49H9.39204V10.49ZM1.5 8.73901V2.51514H0.5V8.73901H1.5ZM1.60796 2.45588L9.39204 2.45588V1.45588L1.60796 1.45588L1.60796 2.45588ZM9.5 2.51514L9.5 10.4307L10.5 10.4307L10.5 2.51514L9.5 2.51514ZM9.39204 2.45588C9.43509 2.45588 9.46611 2.47174 9.48343 2.48767C9.50004 2.50295 9.5 2.51298 9.5 2.51514L10.5 2.51514C10.5 1.89164 9.96383 1.45588 9.39204 1.45588V2.45588ZM1.5 2.51514C1.5 2.51298 1.49996 2.50295 1.51657 2.48767C1.53389 2.47174 1.56491 2.45588 1.60796 2.45588L1.60796 1.45588C1.03617 1.45588 0.5 1.89164 0.5 2.51514L1.5 2.51514ZM2.89164 10.1172C2.46271 9.72278 1.88957 9.19372 1.57333 8.90166L0.894862 9.63628C1.21111 9.92836 1.78497 10.4581 2.21479 10.8533L2.89164 10.1172ZM9.39204 11.49C9.96383 11.49 10.5 11.0542 10.5 10.4307L9.5 10.4307C9.5 10.4329 9.50004 10.4429 9.48343 10.4582C9.46611 10.4741 9.43509 10.49 9.39204 10.49V11.49ZM2.60704 9.61041L2.60704 11H3.60704V9.61041H2.60704ZM1 9.55115L2.49839 9.55115L2.49839 8.55115L1 8.55115L1 9.55115ZM3.60704 9.61041C3.60704 8.9864 3.07007 8.55056 2.49787 8.55115L2.49891 9.55115C2.542 9.55111 2.57308 9.56696 2.59043 9.58291C2.60708 9.59821 2.60704 9.60826 2.60704 9.61041H3.60704ZM0.5 8.73901C0.5 9.08108 0.64388 9.40449 0.894862 9.63628L1.57333 8.90166C1.52411 8.85619 1.5 8.79773 1.5 8.73901H0.5ZM3.86975 10.49C3.73729 10.49 3.5463 10.4521 3.34641 10.3757C3.14576 10.299 2.98322 10.2014 2.89164 10.1172L2.21479 10.8533C2.42803 11.0494 2.71314 11.2042 2.98924 11.3097C3.26611 11.4156 3.58098 11.49 3.86975 11.49V10.49ZM1.30508 5.32353H9.92373V4.32353H1.30508V5.32353ZM4.28874 3.11467V1H3.28874V3.11467H4.28874ZM7.94976 3.11467V1H6.94976V3.11467H7.94976ZM3.74576 7.23529H3.82203V6.23529H3.74576V7.23529ZM3.74576 8.85294H3.82203V7.85294H3.74576V8.85294ZM5.57627 7.23529H5.65254V6.23529H5.57627V7.23529ZM5.57627 8.85294H5.65254V7.85294H5.57627V8.85294ZM7.40678 7.23529H7.48305V6.23529H7.40678V7.23529ZM7.40678 8.85294H7.48305V7.85294H7.40678V8.85294Z" fill="#2260FF"/>
</svg>
