<svg width="41" height="41" viewBox="0 0 41 41" fill="none" xmlns="http://www.w3.org/2000/svg">
<g filter="url(#filter0_d_2339_1769)">
<path d="M10.8052 20.0696L10.8052 19.5696L10.8052 20.0696ZM9.67833 16.9483L9.98587 17.3425H9.98587L9.67833 16.9483ZM31.3217 16.9483L31.0141 17.3425L31.3217 16.9483ZM30.1948 20.0696V20.5696V20.0696ZM21.6269 9.38529L21.9344 8.99106V8.99106L21.6269 9.38529ZM19.3731 9.38529L19.0656 8.99106V8.99106L19.3731 9.38529ZM20.5 25.2683V25.7683V25.2683ZM23.6625 28.3062H24.1625H23.6625ZM17.3375 28.3062L16.8375 28.3062V28.3062H17.3375ZM16.8375 32C16.8375 32.2761 17.0614 32.5 17.3375 32.5C17.6136 32.5 17.8375 32.2761 17.8375 32H16.8375ZM23.1625 32C23.1625 32.2761 23.3864 32.5 23.6625 32.5C23.9386 32.5 24.1625 32.2761 24.1625 32H23.1625ZM28.8281 19.886V30.2467H29.8281V19.886H28.8281ZM27.5265 31.5H13.8339V32.5H27.5265V31.5ZM12.5322 30.2467V19.886H11.5322V30.2467H12.5322ZM13.8339 31.5C13.1021 31.5 12.5322 30.9261 12.5322 30.2467H11.5322C11.5322 31.5039 12.5756 32.5 13.8339 32.5V31.5ZM28.8281 30.2467C28.8281 30.9261 28.2583 31.5 27.5265 31.5V32.5C28.7847 32.5 29.8281 31.5039 29.8281 30.2467H28.8281ZM21.3194 9.77952L31.0141 17.3425L31.6292 16.5541L21.9344 8.99106L21.3194 9.77952ZM30.1948 19.5696L10.8052 19.5696L10.8052 20.5696L30.1948 20.5696V19.5696ZM9.98587 17.3425L19.6806 9.77952L19.0656 8.99106L9.37078 16.5541L9.98587 17.3425ZM10.8052 19.5696C9.54747 19.5696 9.05739 18.0669 9.98587 17.3425L9.37078 16.5541C7.64306 17.9019 8.65864 20.5696 10.8052 20.5696L10.8052 19.5696ZM31.0141 17.3425C31.9426 18.0669 31.4525 19.5696 30.1948 19.5696V20.5696C32.3414 20.5696 33.3569 17.9019 31.6292 16.5541L31.0141 17.3425ZM21.9344 8.99106C21.0951 8.33631 19.9049 8.33631 19.0656 8.99106L19.6806 9.77952C20.1584 9.40683 20.8416 9.40683 21.3194 9.77952L21.9344 8.99106ZM20.5 25.7683C21.9896 25.7683 23.1625 26.9233 23.1625 28.3062H24.1625C24.1625 26.3335 22.5036 24.7683 20.5 24.7683V25.7683ZM17.8375 28.3062C17.8375 26.9233 19.0104 25.7683 20.5 25.7683V24.7683C18.4964 24.7683 16.8375 26.3335 16.8375 28.3062L17.8375 28.3062ZM17.8375 32V28.3062H16.8375V32H17.8375ZM23.1625 28.3062L23.1625 32H24.1625L24.1625 28.3062H23.1625Z" fill="white"/>
</g>
<defs>
<filter id="filter0_d_2339_1769" x="0.495728" y="0.5" width="40.0085" height="40" filterUnits="userSpaceOnUse" color-interpolation-filters="sRGB">
<feFlood flood-opacity="0" result="BackgroundImageFix"/>
<feColorMatrix in="SourceAlpha" type="matrix" values="0 0 0 0 0 0 0 0 0 0 0 0 0 0 0 0 0 0 127 0" result="hardAlpha"/>
<feOffset/>
<feGaussianBlur stdDeviation="4"/>
<feComposite in2="hardAlpha" operator="out"/>
<feColorMatrix type="matrix" values="0 0 0 0 0 0 0 0 0 0 0 0 0 0 0 0 0 0 0.25 0"/>
<feBlend mode="normal" in2="BackgroundImageFix" result="effect1_dropShadow_2339_1769"/>
<feBlend mode="normal" in="SourceGraphic" in2="effect1_dropShadow_2339_1769" result="shape"/>
</filter>
</defs>
</svg>
